<?xml version="1.0" encoding="UTF-8" standalone="no"?>
<!DOCTYPE svg PUBLIC "-//W3C//DTD SVG 1.1//EN" "http://www.w3.org/Graphics/SVG/1.1/DTD/svg11.dtd">
<svg width="100%" height="100%" viewBox="0 0 637 102" version="1.1" xmlns="http://www.w3.org/2000/svg" xmlns:xlink="http://www.w3.org/1999/xlink" xml:space="preserve" xmlns:serif="http://www.serif.com/" style="fill-rule:evenodd;clip-rule:evenodd;stroke-linecap:round;stroke-linejoin:round;stroke-miterlimit:1.5;">
    <g transform="matrix(1,0,0,1,-77.0329,-1526.32)">
        <rect id="Plan-de-travail1" serif:id="Plan de travail1" x="0" y="0" width="2732" height="2048" style="fill:none;"/>
        <g id="Plan-de-travail11" serif:id="Plan de travail1">
            <g transform="matrix(0.390625,-3.39258e-17,-2.67147e-17,0.416667,330.467,237.66)">
                <g id="Delete">
                </g>
            </g>
            <g transform="matrix(0.583674,-5.06922e-17,-3.99173e-17,0.622585,-860.124,582.023)">
                <g id="Search">
                </g>
            </g>
            <g>
                <g transform="matrix(1.04318,0,0,1,-1472.21,303.491)">
                    <path d="M2092.12,1251.67C2092.12,1237.55 2081.16,1226.11 2067.63,1226.11C1968.93,1226.11 1601.3,1226.11 1509.27,1226.11C1497.67,1226.11 1488.27,1235.92 1488.27,1248.02C1488.27,1263.18 1488.27,1283.32 1488.27,1298.6C1488.27,1304.54 1490.54,1310.25 1494.57,1314.45C1498.6,1318.66 1504.07,1321.02 1509.77,1321.02C1602.32,1321.02 1966.66,1321.02 2066.63,1321.02C2073.39,1321.02 2079.88,1318.22 2084.66,1313.23C2089.44,1308.24 2092.12,1301.48 2092.12,1294.43C2092.12,1281.04 2092.12,1264.9 2092.12,1251.67Z" style="fill:white;stroke:rgb(22,168,146);stroke-width:6.44px;"/>
                </g>
                <g id="Options" transform="matrix(1,1.2326e-32,1.54284e-32,1.2517,-1098.3,-104.378)">
                    <path d="M1477.8,1349.5L1481.8,1349.5L1481.8,1353.5L1477.8,1353.5L1477.8,1349.5ZM1519.8,1350.5L1519.8,1352.5L1485.8,1352.5L1485.8,1350.5L1519.8,1350.5ZM1477.8,1338.5L1481.8,1338.5L1481.8,1342.5L1477.8,1342.5L1477.8,1338.5ZM1485.8,1339.5L1519.8,1339.5L1519.8,1341.5L1485.8,1341.5L1485.8,1339.5ZM1477.8,1327.5L1481.8,1327.5L1481.8,1331.5L1477.8,1331.5L1477.8,1327.5ZM1485.8,1328.5L1519.8,1328.5L1519.8,1330.5L1485.8,1330.5L1485.8,1328.5Z"/>
                </g>
                <g>
                    <g transform="matrix(0.32351,0,0,0.32351,606.344,1497.78)">
                        <path d="M115.162,180.001C116.382,180.012 117.599,180.104 118.805,180.288C121.039,180.63 123.225,181.278 125.284,182.21C127.756,183.328 130.041,184.852 132.027,186.701C134.081,188.614 135.813,190.871 137.124,193.354C138.244,195.477 139.055,197.762 139.522,200.117C140.058,202.818 140.144,205.609 139.779,208.338C139.438,210.885 138.701,213.376 137.599,215.698C136.329,218.373 134.58,220.816 132.461,222.885C130.231,225.062 127.597,226.819 124.727,228.034C121.707,229.312 118.441,229.979 115.162,229.999C111.876,230.02 108.596,229.395 105.554,228.151C102.668,226.971 100.012,225.245 97.755,223.093C95.613,221.051 93.835,218.63 92.533,215.971C91.405,213.666 90.637,211.189 90.265,208.65C89.873,205.976 89.915,203.237 90.391,200.577C90.805,198.259 91.552,196.002 92.6,193.893C93.851,191.377 95.529,189.078 97.539,187.115C99.551,185.151 101.892,183.527 104.44,182.337C106.484,181.381 108.659,180.707 110.885,180.338C112.086,180.138 113.299,180.032 114.516,180.005C114.731,180.001 114.946,180 115.162,180.001ZM114.856,182.8C113.819,182.81 112.783,182.885 111.756,183.035C109.726,183.333 107.739,183.915 105.87,184.761C103.593,185.791 101.496,187.209 99.687,188.933C97.881,190.655 96.367,192.679 95.229,194.9C94.298,196.716 93.621,198.66 93.224,200.662C92.739,203.108 92.67,205.636 93.016,208.106C93.332,210.362 93.999,212.566 94.989,214.618C96.151,217.028 97.751,219.221 99.687,221.067C101.691,222.978 104.05,224.511 106.614,225.559C109.314,226.664 112.227,227.218 115.144,227.2C118.055,227.181 120.954,226.59 123.636,225.456C126.185,224.377 128.524,222.815 130.505,220.882C132.419,219.012 133.994,216.8 135.126,214.375C136.092,212.308 136.733,210.092 137.021,207.829C137.336,205.356 137.236,202.83 136.721,200.391C136.29,198.353 135.568,196.379 134.584,194.543C133.407,192.344 131.856,190.348 130.021,188.66C128.214,186.998 126.133,185.636 123.884,184.651C122.001,183.827 120.004,183.269 117.967,182.997C116.936,182.859 115.897,182.797 114.856,182.8Z" style="fill-rule:nonzero;stroke:black;stroke-width:1.85px;stroke-linecap:butt;stroke-miterlimit:1.41421;"/>
                    </g>
                    <g transform="matrix(1,0,0,1,-6.08682,1.43219)">
                        <path d="M663.502,1586.94C663.964,1587.81 663.936,1588.86 663.428,1589.71C662.92,1590.55 662.006,1591.07 661.021,1591.07C655.07,1591.07 644.81,1591.07 638.551,1591.07C637.421,1591.07 636.375,1590.48 635.792,1589.51C635.21,1588.54 635.178,1587.34 635.708,1586.34C637.072,1583.77 638.711,1580.68 639.865,1578.51C640.761,1576.82 642.517,1575.76 644.43,1575.76C647.368,1575.76 651.745,1575.76 654.627,1575.76C656.437,1575.76 658.099,1576.76 658.947,1578.36C660.194,1580.71 662.052,1584.21 663.502,1586.94Z" style="fill:none;stroke:black;stroke-width:1.32px;"/>
                    </g>
                </g>
                <g id="Search1" serif:id="Search" transform="matrix(1,6.16298e-32,-1.2326e-32,1,-5110.83,1265.01)">
                    <path d="M5378.55,318.058C5375.82,320.091 5372.43,321.294 5368.76,321.294C5359.7,321.294 5352.35,313.952 5352.35,304.895C5352.35,295.838 5359.7,288.495 5368.76,288.495C5377.82,288.495 5385.17,295.838 5385.17,304.895C5385.17,308.808 5383.8,312.401 5381.51,315.221L5391.79,326.032C5392.57,326.853 5392.53,328.15 5391.71,328.93C5390.89,329.71 5389.59,329.676 5388.81,328.855L5378.55,318.058ZM5368.76,317.194C5361.97,317.194 5356.46,311.687 5356.46,304.895C5356.46,298.102 5361.97,292.595 5368.76,292.595C5375.56,292.595 5381.07,298.102 5381.07,304.895C5381.07,311.687 5375.56,317.194 5368.76,317.194Z"/>
                </g>
                <g transform="matrix(1,0,0,1,158.481,-132.13)">
                    <clipPath id="_clip1">
                        <rect x="347.052" y="1684.91" width="50.476" height="42.571"/>
                    </clipPath>
                    <g clip-path="url(#_clip1)">
                        <g id="Menu--wide-" serif:id="Menu (wide)" transform="matrix(0.00372316,-0.999993,0.999993,0.00372316,-662.899,3445.5)">
                            <g transform="matrix(1,0,0,1,151.3,-321)">
                                <rect x="1569.7" y="1351" width="44" height="3"/>
                            </g>
                            <g transform="matrix(1,0,0,1,151.3,-320)">
                                <rect x="1569.7" y="1340" width="44" height="3"/>
                            </g>
                            <g transform="matrix(1,0,0,1,151.3,-319)">
                                <rect x="1569.7" y="1329" width="44" height="3"/>
                            </g>
                        </g>
                        <g id="Menu--wide-1" serif:id="Menu (wide)" transform="matrix(0.00372316,-0.999993,1.43783,0.00535332,-1105.12,3443.86)">
                            <g transform="matrix(1,0,0,1,151.3,-321)">
                                <rect x="1569.7" y="1351" width="44" height="3"/>
                            </g>
                            <g transform="matrix(1,0,0,1,151.3,-320)">
                                <rect x="1569.7" y="1340" width="44" height="3"/>
                            </g>
                            <g transform="matrix(1,0,0,1,151.3,-319)">
                                <rect x="1569.7" y="1329" width="44" height="3"/>
                            </g>
                        </g>
                        <g id="Menu--wide-2" serif:id="Menu (wide)" transform="matrix(0.00372316,-0.999993,0.282773,0.00105282,61.4932,3448.2)">
                            <g transform="matrix(1,0,0,1,151.3,-321)">
                                <rect x="1569.7" y="1351" width="44" height="3"/>
                            </g>
                            <g transform="matrix(1,0,0,1,151.3,-320)">
                                <rect x="1569.7" y="1340" width="44" height="3"/>
                            </g>
                            <g transform="matrix(1,0,0,1,151.3,-319)">
                                <rect x="1569.7" y="1329" width="44" height="3"/>
                            </g>
                        </g>
                        <g id="Menu--wide-3" serif:id="Menu (wide)" transform="matrix(0.00372316,-0.999993,0.282716,0.00105261,85.4428,3448.43)">
                            <g transform="matrix(1,0,0,1,151.3,-321)">
                                <rect x="1569.7" y="1351" width="44" height="3"/>
                            </g>
                            <g transform="matrix(1,0,0,1,151.3,-320)">
                                <rect x="1569.7" y="1340" width="44" height="3"/>
                            </g>
                            <g transform="matrix(1,0,0,1,151.3,-319)">
                                <rect x="1569.7" y="1329" width="44" height="3"/>
                            </g>
                        </g>
                        <g id="Menu--wide-4" serif:id="Menu (wide)" transform="matrix(0.00372316,-0.999993,0.267251,0.000995024,111.018,3448.61)">
                            <g transform="matrix(1,0,0,1,151.3,-321)">
                                <rect x="1569.7" y="1351" width="44" height="3"/>
                            </g>
                            <g transform="matrix(1,0,0,1,151.3,-320)">
                                <rect x="1569.7" y="1340" width="44" height="3"/>
                            </g>
                            <g transform="matrix(1,0,0,1,151.3,-319)">
                                <rect x="1569.7" y="1329" width="44" height="3"/>
                            </g>
                        </g>
                        <g id="Menu--wide-5" serif:id="Menu (wide)" transform="matrix(0.00372316,-0.999993,0.455467,0.00169579,-119.376,3447.48)">
                            <g transform="matrix(1,0,0,1,151.3,-321)">
                                <rect x="1569.7" y="1351" width="44" height="3"/>
                            </g>
                            <g transform="matrix(1,0,0,1,151.3,-320)">
                                <rect x="1569.7" y="1340" width="44" height="3"/>
                            </g>
                            <g transform="matrix(1,0,0,1,151.3,-319)">
                                <rect x="1569.7" y="1329" width="44" height="3"/>
                            </g>
                        </g>
                        <g id="Menu--wide-6" serif:id="Menu (wide)" transform="matrix(0.00372316,-0.999993,0.552576,0.00205734,-179.854,3447.18)">
                            <g transform="matrix(1,0,0,1,151.3,-321)">
                                <rect x="1569.7" y="1351" width="44" height="3"/>
                            </g>
                            <g transform="matrix(1,0,0,1,151.3,-320)">
                                <rect x="1569.7" y="1340" width="44" height="3"/>
                            </g>
                            <g transform="matrix(1,0,0,1,151.3,-319)">
                                <rect x="1569.7" y="1329" width="44" height="3"/>
                            </g>
                        </g>
                    </g>
                </g>
                <g transform="matrix(1.13676,0,0,1,-1.63731,-3.08124)">
                    <text x="130.7px" y="1599.54px" style="font-family:'EuphemiaUCAS-Bold', 'Euphemia UCAS', sans-serif;font-weight:700;font-size:49.816px;">?</text>
                </g>
            </g>
            <g transform="matrix(1,0,0,1,21.4959,-28.2154)">
                <clipPath id="_clip2">
                    <rect x="347.052" y="1684.91" width="50.476" height="42.571"/>
                </clipPath>
                <g clip-path="url(#_clip2)">
                    <g id="Menu--wide-7" serif:id="Menu (wide)">
                    </g>
                    <g id="Menu--wide-8" serif:id="Menu (wide)">
                    </g>
                    <g id="Menu--wide-9" serif:id="Menu (wide)">
                    </g>
                    <g id="Menu--wide-10" serif:id="Menu (wide)">
                    </g>
                    <g id="Menu--wide-11" serif:id="Menu (wide)">
                    </g>
                    <g id="Menu--wide-12" serif:id="Menu (wide)">
                    </g>
                    <g id="Menu--wide-13" serif:id="Menu (wide)">
                    </g>
                </g>
            </g>
        </g>
    </g>
</svg>
