<?xml version="1.0" encoding="UTF-8" standalone="no"?>
<!DOCTYPE svg PUBLIC "-//W3C//DTD SVG 1.1//EN" "http://www.w3.org/Graphics/SVG/1.1/DTD/svg11.dtd">
<svg width="100%" height="100%" viewBox="0 0 404 81" version="1.1" xmlns="http://www.w3.org/2000/svg" xmlns:xlink="http://www.w3.org/1999/xlink" xml:space="preserve" xmlns:serif="http://www.serif.com/" style="fill-rule:evenodd;clip-rule:evenodd;stroke-linecap:round;stroke-linejoin:round;stroke-miterlimit:1.5;">
    <g transform="matrix(1,0,0,1,-83.9011,-727.447)">
        <rect id="Plan-de-travail1" serif:id="Plan de travail1" x="0" y="0" width="2732" height="2048" style="fill:none;"/>
        <g id="Plan-de-travail11" serif:id="Plan de travail1">
            <g transform="matrix(0.390625,-3.39258e-17,-2.67147e-17,0.416667,330.467,237.66)">
                <g id="Delete">
                </g>
            </g>
            <g>
                <g transform="matrix(1.02888,0,0,1.09239,-12.7017,362.076)">
                    <path d="M484.265,370.864C484.265,361.617 480.365,352.749 473.423,346.211C466.48,339.672 457.065,335.999 447.247,335.999C373.022,335.999 206.773,335.999 132.541,335.999C112.092,335.999 95.515,351.612 95.515,370.872C95.515,371.057 95.515,371.242 95.515,371.427C95.515,380.743 99.445,389.678 106.439,396.266C113.434,402.854 122.92,406.555 132.812,406.555C207.204,406.555 373.233,406.555 447.328,406.555C457.124,406.555 466.519,402.89 473.446,396.365C480.373,389.841 484.265,380.992 484.265,371.765C484.265,371.465 484.265,371.165 484.265,370.864Z" style="fill:white;stroke:rgb(25,194,169);stroke-width:3.15px;"/>
                </g>
                <g transform="matrix(0.778983,0,0,0.778983,-253.846,610.083)">
                    <text x="615.764px" y="222.403px" style="font-family:'DINCondensed-Bold', 'DIN Condensed';font-weight:700;font-stretch:condensed;font-size:57.992px;fill:rgb(25,194,169);">Rec<tspan x="682.686px 705.245px 726.702px 742.128px 762.889px 785.448px " y="222.403px 222.403px 222.403px 222.403px 222.403px 222.403px ">herche</tspan> ...</text>
                </g>
                <g transform="matrix(1.4942,1.97215e-31,7.39557e-32,1.4942,-860.251,584.265)">
                    <g id="Search">
                        <path d="M679.882,132.711C678.931,133.423 677.891,134.014 676.79,134.464C675.115,135.149 673.31,135.5 671.5,135.5C669.69,135.5 667.885,135.149 666.21,134.464C664.594,133.803 663.106,132.837 661.843,131.632C660.623,130.469 659.614,129.087 658.882,127.568C658.257,126.272 657.835,124.88 657.636,123.456C657.422,121.929 657.46,120.366 657.751,118.852C657.988,117.614 658.395,116.408 658.957,115.279C659.657,113.871 660.596,112.583 661.722,111.484C662.848,110.384 664.159,109.475 665.585,108.809C666.784,108.249 668.062,107.861 669.37,107.661C670.016,107.563 670.666,107.514 671.319,107.501C671.5,107.5 671.5,107.5 671.681,107.501C672.334,107.514 672.984,107.563 673.63,107.661C674.938,107.861 676.216,108.249 677.415,108.809C678.892,109.499 680.245,110.45 681.398,111.602C682.51,112.715 683.435,114.014 684.118,115.432C684.692,116.622 685.095,117.893 685.311,119.197C685.544,120.602 685.562,122.045 685.364,123.456C685.164,124.881 684.743,126.272 684.118,127.568C683.725,128.383 683.253,129.159 682.711,129.882L692.914,140.086L690.086,142.914L679.882,132.711ZM671.345,109.501C670.785,109.512 670.227,109.554 669.673,109.638C668.553,109.81 667.458,110.142 666.432,110.621C665.209,111.193 664.085,111.972 663.119,112.915C662.154,113.858 661.348,114.962 660.747,116.17C660.267,117.136 659.918,118.168 659.715,119.229C659.466,120.528 659.433,121.868 659.617,123.178C659.787,124.398 660.149,125.59 660.684,126.7C661.311,128.002 662.176,129.187 663.223,130.185C664.306,131.217 665.581,132.046 666.967,132.613C668.402,133.2 669.949,133.5 671.5,133.5C673.051,133.5 674.598,133.2 676.033,132.613C677.419,132.046 678.694,131.218 679.777,130.185C680.823,129.187 681.689,128.002 682.316,126.7C682.851,125.59 683.212,124.398 683.383,123.178C683.567,121.868 683.534,120.528 683.285,119.229C683.091,118.216 682.764,117.229 682.316,116.3C681.73,115.085 680.938,113.971 679.984,113.017C678.995,112.028 677.835,111.213 676.568,110.621C675.542,110.142 674.447,109.81 673.327,109.638C672.773,109.554 672.215,109.512 671.655,109.501C671.499,109.5 671.5,109.5 671.345,109.501Z" style="fill:rgb(25,194,169);"/>
                    </g>
                </g>
            </g>
            <g transform="matrix(1,0,0,1,158.481,-132.13)">
                <clipPath id="_clip1">
                    <rect x="347.052" y="1684.91" width="50.476" height="42.571"/>
                </clipPath>
                <g clip-path="url(#_clip1)">
                    <g id="Menu--wide-" serif:id="Menu (wide)">
                    </g>
                    <g id="Menu--wide-1" serif:id="Menu (wide)">
                    </g>
                    <g id="Menu--wide-2" serif:id="Menu (wide)">
                    </g>
                    <g id="Menu--wide-3" serif:id="Menu (wide)">
                    </g>
                    <g id="Menu--wide-4" serif:id="Menu (wide)">
                    </g>
                    <g id="Menu--wide-5" serif:id="Menu (wide)">
                    </g>
                    <g id="Menu--wide-6" serif:id="Menu (wide)">
                    </g>
                </g>
            </g>
            <g transform="matrix(1,0,0,1,21.4959,-28.2154)">
                <clipPath id="_clip2">
                    <rect x="347.052" y="1684.91" width="50.476" height="42.571"/>
                </clipPath>
                <g clip-path="url(#_clip2)">
                    <g id="Menu--wide-7" serif:id="Menu (wide)">
                    </g>
                    <g id="Menu--wide-8" serif:id="Menu (wide)">
                    </g>
                    <g id="Menu--wide-9" serif:id="Menu (wide)">
                    </g>
                    <g id="Menu--wide-10" serif:id="Menu (wide)">
                    </g>
                    <g id="Menu--wide-11" serif:id="Menu (wide)">
                    </g>
                    <g id="Menu--wide-12" serif:id="Menu (wide)">
                    </g>
                    <g id="Menu--wide-13" serif:id="Menu (wide)">
                    </g>
                </g>
            </g>
        </g>
    </g>
</svg>
