<?xml version="1.0" encoding="UTF-8" standalone="no"?>
<!DOCTYPE svg PUBLIC "-//W3C//DTD SVG 1.1//EN" "http://www.w3.org/Graphics/SVG/1.1/DTD/svg11.dtd">
<svg width="100%" height="100%" viewBox="0 0 91 77" version="1.1" xmlns="http://www.w3.org/2000/svg" xmlns:xlink="http://www.w3.org/1999/xlink" xml:space="preserve" xmlns:serif="http://www.serif.com/" style="fill-rule:evenodd;clip-rule:evenodd;stroke-linecap:round;stroke-linejoin:round;stroke-miterlimit:1.5;">
    <g transform="matrix(1,0,0,1,-1939.51,-1025.44)">
        <g transform="matrix(1,1.2326e-32,1.2326e-32,1,581.802,-368.549)">
            <path d="M1383.5,1414.6L1413.5,1414.6L1411.5,1416.6L1385.5,1416.6L1385.5,1450.6L1419.5,1450.6L1419.5,1424.6L1421.5,1422.6L1421.5,1452.6L1383.5,1452.6L1383.5,1414.6ZM1421.9,1412L1402.5,1431.5L1404.6,1433.6L1424,1414.1L1425.5,1415.5L1405.7,1435.3L1399.1,1436.9L1400.7,1430.4L1420.5,1410.6L1421.9,1412ZM1429.3,1410.3L1425.8,1406.8C1425.4,1406.4 1424.8,1406.4 1424.4,1406.8L1422.1,1409.1L1427,1414L1429.3,1411.7C1429.6,1411.3 1429.6,1410.7 1429.3,1410.3Z"/>
        </g>
        <g transform="matrix(0.474064,0,0,1,1627.57,858.852)">
            <path d="M845.298,204.443C845.298,184.457 811.12,168.255 768.961,168.255C757.963,168.255 746.658,168.255 735.703,168.255C716.032,168.255 697.166,171.959 683.256,178.553C669.346,185.147 661.532,194.091 661.532,203.416C661.532,203.758 661.532,204.101 661.532,204.443C661.532,214.177 669.689,223.512 684.208,230.395C698.727,237.278 718.419,241.145 738.951,241.145C748.522,241.145 758.307,241.145 767.878,241.145C810.636,241.145 845.298,224.713 845.298,204.443C845.298,204.443 845.298,204.443 845.298,204.443Z" style="fill:none;stroke:rgb(25,194,169);stroke-width:4.27px;"/>
        </g>
    </g>
</svg>
