<?xml version="1.0" encoding="UTF-8" standalone="no"?>
<!DOCTYPE svg PUBLIC "-//W3C//DTD SVG 1.1//EN" "http://www.w3.org/Graphics/SVG/1.1/DTD/svg11.dtd">
<svg width="100%" height="100%" viewBox="0 0 358 356" version="1.1" xmlns="http://www.w3.org/2000/svg" xmlns:xlink="http://www.w3.org/1999/xlink" xml:space="preserve" xmlns:serif="http://www.serif.com/" style="fill-rule:evenodd;clip-rule:evenodd;stroke-linecap:round;stroke-linejoin:round;stroke-miterlimit:1.5;">
    <g transform="matrix(1,0,0,1,-853.999,-496.318)">
        <rect id="Plan-de-travail1" serif:id="Plan de travail1" x="0" y="0" width="2732" height="2048" style="fill:none;"/>
        <g id="Plan-de-travail11" serif:id="Plan de travail1">
            <g transform="matrix(0.390625,-3.39258e-17,-2.67147e-17,0.416667,330.467,237.66)">
                <g id="Delete">
                </g>
            </g>
            <g transform="matrix(0.583674,-5.06922e-17,-3.99173e-17,0.622585,-860.124,582.023)">
                <g id="Search">
                </g>
            </g>
            <g>
                <rect x="879.529" y="520.308" width="309.278" height="309.278" style="fill:none;stroke:rgb(25,194,169);stroke-width:6.58px;"/>
                <g id="Back" transform="matrix(0.713076,0.701087,-0.701087,0.713076,1126,207.444)">
                    <path d="M34.3,376L13.3,396.8L34.3,418L38.3,414L21.3,396.8L38.3,380L34.3,376Z" style="fill:rgb(25,194,169);fill-rule:nonzero;stroke:rgb(25,194,169);stroke-width:6.58px;stroke-linecap:butt;stroke-miterlimit:1.41421;"/>
                </g>
                <g id="Back1" serif:id="Back" transform="matrix(-0.722875,0.690979,-0.690979,-0.722875,1492.03,780.392)">
                    <path d="M34.3,376L13.3,396.8L34.3,418L38.3,414L21.3,396.8L38.3,380L34.3,376Z" style="fill:rgb(25,194,169);fill-rule:nonzero;stroke:rgb(25,194,169);stroke-width:6.58px;stroke-linecap:butt;stroke-miterlimit:1.41421;"/>
                </g>
                <g id="Back2" serif:id="Back" transform="matrix(0.705878,-0.708334,0.708334,0.705878,567.513,577.923)">
                    <path d="M34.3,376L13.3,396.8L34.3,418L38.3,414L21.3,396.8L38.3,380L34.3,376Z" style="fill:rgb(25,194,169);fill-rule:nonzero;stroke:rgb(25,194,169);stroke-width:6.58px;stroke-linecap:butt;stroke-miterlimit:1.41421;"/>
                </g>
                <g id="Back3" serif:id="Back" transform="matrix(-0.71216,-0.702017,0.702017,-0.71216,938.736,1139.41)">
                    <path d="M34.3,376L13.3,396.8L34.3,418L38.3,414L21.3,396.8L38.3,380L34.3,376Z" style="fill:rgb(25,194,169);fill-rule:nonzero;stroke:rgb(25,194,169);stroke-width:6.58px;stroke-linecap:butt;stroke-miterlimit:1.41421;"/>
                </g>
            </g>
            <g transform="matrix(1,0,0,1,158.481,-132.13)">
                <clipPath id="_clip1">
                    <rect x="347.052" y="1684.91" width="50.476" height="42.571"/>
                </clipPath>
                <g clip-path="url(#_clip1)">
                    <g id="Menu--wide-" serif:id="Menu (wide)">
                    </g>
                    <g id="Menu--wide-1" serif:id="Menu (wide)">
                    </g>
                    <g id="Menu--wide-2" serif:id="Menu (wide)">
                    </g>
                    <g id="Menu--wide-3" serif:id="Menu (wide)">
                    </g>
                    <g id="Menu--wide-4" serif:id="Menu (wide)">
                    </g>
                    <g id="Menu--wide-5" serif:id="Menu (wide)">
                    </g>
                    <g id="Menu--wide-6" serif:id="Menu (wide)">
                    </g>
                </g>
            </g>
            <g transform="matrix(1,0,0,1,21.4959,-28.2154)">
                <clipPath id="_clip2">
                    <rect x="347.052" y="1684.91" width="50.476" height="42.571"/>
                </clipPath>
                <g clip-path="url(#_clip2)">
                    <g id="Menu--wide-7" serif:id="Menu (wide)">
                    </g>
                    <g id="Menu--wide-8" serif:id="Menu (wide)">
                    </g>
                    <g id="Menu--wide-9" serif:id="Menu (wide)">
                    </g>
                    <g id="Menu--wide-10" serif:id="Menu (wide)">
                    </g>
                    <g id="Menu--wide-11" serif:id="Menu (wide)">
                    </g>
                    <g id="Menu--wide-12" serif:id="Menu (wide)">
                    </g>
                    <g id="Menu--wide-13" serif:id="Menu (wide)">
                    </g>
                </g>
            </g>
        </g>
    </g>
</svg>
