<?xml version="1.0" encoding="UTF-8" standalone="no"?>
<!DOCTYPE svg PUBLIC "-//W3C//DTD SVG 1.1//EN" "http://www.w3.org/Graphics/SVG/1.1/DTD/svg11.dtd">
<svg width="100%" height="100%" viewBox="0 0 47 67" version="1.1" xmlns="http://www.w3.org/2000/svg" xmlns:xlink="http://www.w3.org/1999/xlink" xml:space="preserve" xmlns:serif="http://www.serif.com/" style="fill-rule:evenodd;clip-rule:evenodd;stroke-linejoin:round;stroke-miterlimit:1.41421;">
    <g transform="matrix(1,0,0,1,-101.475,-906.359)">
        <rect id="Plan-de-travail1" serif:id="Plan de travail1" x="0" y="0" width="2732" height="2048" style="fill:none;"/>
        <g id="Plan-de-travail11" serif:id="Plan de travail1">
            <g transform="matrix(0.390625,-3.39258e-17,-2.67147e-17,0.416667,330.467,237.66)">
                <g id="Delete">
                </g>
            </g>
            <g transform="matrix(0.583674,-5.06922e-17,-3.99173e-17,0.622585,-860.124,582.023)">
                <g id="Search">
                </g>
            </g>
            <g>
                <g id="Phone" transform="matrix(1,3.69779e-32,1.2326e-32,1,6.46836,625.459)">
                    <path d="M103.3,283.4C103.6,283.4 103.9,283.5 104.1,283.6C104.9,283.9 109.7,288.2 110.6,293.7C110.6,293.7 110.1,296 107.8,299.2C107.8,299.2 108.3,301.5 113.8,307C119.4,312.5 121.7,313 121.7,313C124.9,310.7 127.3,310.2 127.3,310.2C132.9,311.1 137.2,315.9 137.5,316.7C138.6,319.2 134.3,322.7 134.3,322.7C133.3,323.1 132.2,323.3 131,323.3C122.1,323.3 110.3,311.8 109.7,311.2C109.4,310.9 94.3,295.7 98.1,286.8C98.1,286.8 101,283.4 103.3,283.4M109.7,311.2M109.7,311.2M103.3,281.4C100.2,281.4 97.1,284.8 96.6,285.5L96.4,285.7L96.3,286C92,295.9 106.5,310.8 108.3,312.6C109.7,314 121.5,325.3 131,325.3C132.5,325.3 133.8,325 135,324.5L135.3,324.4L135.5,324.2C136.4,323.5 140.9,319.5 139.3,315.9C138.7,314.5 133.8,309.3 127.6,308.3L127.2,308.2L126.8,308.3C126.5,308.4 124.4,308.8 121.4,310.8C120.4,310.3 118.4,308.9 115.1,305.7C111.9,302.5 110.5,300.5 110,299.5C111.9,296.5 112.4,294.4 112.5,294.2L112.6,293.8L112.5,293.4C111.5,287.2 106.2,282.4 104.8,281.7C104.4,281.5 103.9,281.4 103.3,281.4Z" style="fill:rgb(25,194,169);fill-rule:nonzero;stroke:rgb(25,194,169);stroke-width:1px;"/>
                </g>
                <path d="M131.956,948.302L132.046,948.312L132.136,948.331L132.223,948.359L132.307,948.394L132.387,948.436L132.464,948.486L132.535,948.543L132.601,948.606L132.66,948.675L132.713,948.749L132.76,948.828L132.798,948.91L132.829,948.996L132.852,949.084L132.866,949.174L132.872,949.265L132.87,949.356L132.859,949.447L132.84,949.536L132.813,949.623L132.778,949.707L132.735,949.788L132.685,949.864L132.629,949.935L132.566,950.001L132.497,950.061L132.423,950.114L132.344,950.16L132.261,950.199L132.176,950.229L132.087,950.252L131.997,950.267L131.963,950.269L131.962,950.27L131.954,950.278L131.945,950.286L131.936,950.297L131.925,950.309L131.913,950.322L131.902,950.336L131.889,950.352L131.876,950.37L131.863,950.388L131.851,950.405L131.82,950.453L131.79,950.501L131.76,950.555L131.728,950.614L131.697,950.676L131.665,950.743L131.634,950.814L131.603,950.888L131.571,950.966L131.541,951.047L131.511,951.13L131.481,951.217L131.452,951.306L131.424,951.397L131.396,951.49L131.369,951.585L131.343,951.681L131.317,951.78L131.293,951.879L131.269,951.979L131.246,952.081L131.224,952.183L131.202,952.285L131.182,952.388L131.162,952.492L131.144,952.595L131.126,952.698L131.109,952.8L131.093,952.902L131.077,953.003L131.063,953.102L131.036,953.301L131.013,953.493L130.994,953.678L130.977,953.854L130.964,954.021L130.954,954.176L130.947,954.317L130.943,954.443L130.942,954.554L130.942,954.647L130.944,954.743L130.947,954.839L130.951,954.934L130.957,955.028L130.963,955.123L130.971,955.217L130.98,955.311L130.99,955.404L131.001,955.497L131.014,955.59L131.027,955.682L131.042,955.774L131.058,955.865L131.075,955.956L131.093,956.046L131.112,956.136L131.132,956.225L131.153,956.314L131.175,956.402L131.199,956.49L131.223,956.577L131.248,956.664L131.275,956.749L131.302,956.835L131.331,956.919L131.36,957.003L131.391,957.086L131.422,957.169L131.455,957.251L131.488,957.332L131.523,957.412L131.558,957.492L131.594,957.57L131.631,957.648L131.669,957.726L131.708,957.802L131.748,957.877L131.789,957.952L131.831,958.026L131.873,958.099L131.916,958.171L131.961,958.242L132.006,958.312L132.052,958.382L132.098,958.45L132.146,958.517L132.194,958.584L132.243,958.649L132.292,958.713L132.343,958.777L132.394,958.839L132.446,958.9L132.499,958.961L132.552,959.02L132.606,959.078L132.661,959.135L132.717,959.191L132.773,959.246L132.829,959.299L132.887,959.352L132.945,959.404L133.004,959.454L133.063,959.503L133.123,959.551L133.184,959.598L133.245,959.644L133.306,959.688L133.369,959.731L133.432,959.774L133.495,959.815L133.559,959.854L133.624,959.893L133.689,959.93L133.755,959.966L133.821,960.001L133.888,960.034L133.955,960.067L134.023,960.098L134.092,960.128L134.097,960.13L134.099,960.063L134.104,959.944L134.111,959.825L134.119,959.707L134.129,959.588L134.14,959.47L134.153,959.352L134.167,959.235L134.183,959.118L134.2,959L134.218,958.884L134.238,958.767L134.259,958.651L134.281,958.534L134.304,958.418L134.328,958.302L134.354,958.186L134.38,958.071L134.407,957.955L134.436,957.84L134.465,957.724L134.495,957.607L134.557,957.379L134.623,957.149L134.691,956.918L134.762,956.688L134.835,956.457L134.91,956.226L134.988,955.988L135.006,955.937L135.028,955.882L135.05,955.828L135.076,955.772L135.122,955.676L135.175,955.577L135.232,955.479L135.292,955.382L135.356,955.285L135.424,955.187L135.495,955.089L135.569,954.991L135.647,954.894L135.729,954.796L135.813,954.699L135.901,954.603L135.992,954.508L136.086,954.415L136.181,954.325L136.233,954.278L136.284,954.234L136.336,954.19L136.388,954.146L136.442,954.104L136.496,954.062L136.552,954.021L136.608,953.98L136.666,953.941L136.725,953.903L136.786,953.865L136.847,953.829L136.91,953.794L136.976,953.76L137.043,953.728L137.111,953.697L137.183,953.668L137.256,953.641L137.332,953.617L137.411,953.595L137.492,953.575L137.577,953.559L137.664,953.547L137.754,953.539L137.847,953.537L137.943,953.539L138.041,953.548L138.141,953.563L138.241,953.585L138.329,953.611L138.416,953.641L138.49,953.669L138.564,953.698L138.637,953.728L138.709,953.76L138.779,953.793L138.85,953.828L138.919,953.864L138.987,953.901L139.054,953.939L139.121,953.979L139.186,954.02L139.251,954.062L139.315,954.105L139.377,954.15L139.439,954.195L139.5,954.242L139.559,954.289L139.618,954.338L139.676,954.387L139.733,954.438L139.789,954.489L139.843,954.542L139.897,954.595L139.95,954.649L140.002,954.704L140.053,954.76L140.103,954.817L140.152,954.874L140.2,954.932L140.246,954.991L140.292,955.05L140.337,955.111L140.381,955.172L140.424,955.234L140.466,955.296L140.507,955.359L140.547,955.423L140.585,955.487L140.623,955.551L140.66,955.617L140.695,955.683L140.73,955.749L140.764,955.816L140.797,955.884L140.828,955.952L140.859,956.02L140.888,956.089L140.917,956.159L140.944,956.229L140.97,956.299L140.996,956.369L141.02,956.44L141.043,956.512L141.065,956.584L141.086,956.656L141.105,956.729L141.124,956.801L141.142,956.875L141.158,956.948L141.173,957.022L141.187,957.096L141.2,957.17L141.212,957.245L141.222,957.32L141.232,957.395L141.24,957.47L141.247,957.546L141.253,957.621L141.257,957.697L141.26,957.773L141.262,957.849L141.263,957.925L141.262,958.001L141.26,958.078L141.257,958.154L141.252,958.231L141.246,958.307L141.239,958.384L141.23,958.461L141.22,958.537L141.208,958.613L141.195,958.69L141.181,958.766L141.165,958.842L141.148,958.918L141.129,958.994L141.109,959.07L141.087,959.145L141.063,959.22L141.039,959.295L141.012,959.37L140.984,959.444L140.955,959.518L140.923,959.591L140.89,959.665L140.856,959.737L140.82,959.809L140.782,959.881L140.743,959.952L140.702,960.022L140.66,960.092L140.616,960.161L140.57,960.229L140.523,960.297L140.473,960.364L140.423,960.43L140.37,960.496L140.316,960.56L140.261,960.623L140.204,960.686L140.145,960.748L140.084,960.808L140.023,960.868L139.959,960.926L139.894,960.984L139.827,961.04L139.759,961.095L139.69,961.149L139.618,961.201L139.546,961.253L139.471,961.303L139.396,961.352L139.319,961.4L139.24,961.446L139.161,961.491L139.079,961.535L138.997,961.577L138.87,961.639L138.743,961.699L138.617,961.756L138.491,961.811L138.365,961.864L138.239,961.914L138.113,961.961L137.988,962.006L137.862,962.049L137.737,962.09L137.613,962.128L137.488,962.164L137.364,962.197L137.24,962.228L137.116,962.256L136.992,962.283L136.869,962.307L136.746,962.328L136.624,962.347L136.502,962.364L136.472,962.368L136.502,962.437L136.542,962.528L136.585,962.619L136.629,962.709L136.658,962.766L136.688,962.822L136.719,962.877L136.752,962.931L136.786,962.986L136.821,963.04L136.857,963.093L136.895,963.146L136.934,963.199L136.974,963.252L137.015,963.304L137.058,963.355L137.102,963.406L137.147,963.457L137.193,963.507L137.241,963.557L137.289,963.606L137.339,963.655L137.39,963.703L137.442,963.751L137.496,963.799L137.55,963.845L137.606,963.892L137.663,963.938L137.72,963.983L137.779,964.027L137.839,964.071L137.9,964.114L137.962,964.157L138.025,964.199L138.089,964.241L138.154,964.282L138.219,964.322L138.286,964.361L138.353,964.4L138.422,964.438L138.491,964.476L138.561,964.513L138.632,964.549L138.703,964.584L138.776,964.618L138.848,964.652L138.922,964.685L138.997,964.717L139.072,964.748L139.147,964.779L139.224,964.809L139.3,964.838L139.378,964.866L139.455,964.893L139.534,964.92L139.613,964.945L139.692,964.97L139.772,964.994L139.852,965.017L139.932,965.039L140.005,965.058L140.008,965.046L140.03,964.944L140.055,964.843L140.103,964.655L140.157,964.459L140.187,964.355L140.217,964.25L140.249,964.143L140.283,964.034L140.318,963.923L140.355,963.81L140.393,963.696L140.433,963.58L140.475,963.463L140.518,963.345L140.563,963.226L140.609,963.106L140.657,962.985L140.707,962.863L140.758,962.741L140.811,962.618L140.866,962.496L140.923,962.373L140.982,962.25L141.042,962.127L141.104,962.005L141.169,961.883L141.235,961.762L141.303,961.641L141.374,961.521L141.447,961.402L141.522,961.284L141.599,961.168L141.679,961.052L141.761,960.939L141.846,960.826L141.933,960.716L142.021,960.61L142.069,960.554L142.116,960.501L142.164,960.449L142.213,960.397L142.262,960.346L142.312,960.295L142.363,960.246L142.414,960.197L142.467,960.148L142.52,960.101L142.575,960.054L142.63,960.007L142.686,959.962L142.743,959.918L142.801,959.875L142.861,959.832L142.921,959.791L142.981,959.751L143.044,959.711L143.107,959.673L143.17,959.637L143.236,959.601L143.302,959.567L143.369,959.534L143.438,959.502L143.507,959.472L143.577,959.444L143.648,959.417L143.72,959.392L143.793,959.368L143.867,959.346L143.942,959.326L144.018,959.308L144.094,959.292L144.171,959.277L144.249,959.265L144.328,959.254L144.407,959.246L144.487,959.24L144.567,959.236L144.648,959.234L144.729,959.234L144.81,959.237L144.892,959.241L144.973,959.248L145.055,959.257L145.138,959.268L145.22,959.282L145.302,959.297L145.384,959.315L145.466,959.335L145.549,959.357L145.631,959.381L145.712,959.407L145.774,959.428L145.834,959.451L145.892,959.474L145.951,959.499L146.01,959.526L146.067,959.554L146.123,959.583L146.178,959.613L146.232,959.645L146.286,959.678L146.339,959.711L146.39,959.746L146.44,959.782L146.49,959.819L146.538,959.857L146.585,959.896L146.631,959.936L146.676,959.976L146.72,960.018L146.763,960.061L146.805,960.104L146.845,960.148L146.885,960.193L146.923,960.239L146.96,960.285L146.996,960.331L147.031,960.379L147.065,960.427L147.098,960.475L147.13,960.524L147.16,960.573L147.192,960.627L147.246,960.723L147.298,960.825L147.346,960.928L147.39,961.033L147.43,961.138L147.467,961.245L147.5,961.352L147.53,961.46L147.556,961.568L147.579,961.677L147.599,961.786L147.616,961.896L147.63,962.006L147.641,962.116L147.649,962.227L147.655,962.337L147.657,962.448L147.657,962.558L147.654,962.669L147.649,962.78L147.64,962.89L147.63,963L147.616,963.11L147.601,963.22L147.582,963.329L147.561,963.438L147.538,963.547L147.512,963.655L147.484,963.762L147.453,963.869L147.42,963.975L147.384,964.08L147.346,964.185L147.305,964.289L147.261,964.391L147.215,964.493L147.167,964.594L147.115,964.693L147.062,964.791L147.005,964.889L146.946,964.984L146.883,965.078L146.818,965.171L146.75,965.261L146.68,965.35L146.606,965.437L146.529,965.522L146.451,965.603L146.375,965.677L146.299,965.748L146.222,965.817L146.144,965.885L146.064,965.95L145.984,966.014L145.901,966.076L145.818,966.136L145.734,966.195L145.649,966.252L145.562,966.307L145.475,966.36L145.387,966.412L145.298,966.462L145.208,966.51L145.117,966.557L145.025,966.602L144.933,966.646L144.84,966.688L144.746,966.728L144.651,966.767L144.556,966.804L144.46,966.84L144.364,966.874L144.266,966.907L144.169,966.938L144.071,966.967L143.972,966.995L143.873,967.022L143.773,967.048L143.673,967.071L143.572,967.094L143.471,967.115L143.37,967.135L143.268,967.153L143.166,967.17L143.063,967.186L142.961,967.2L142.858,967.213L142.755,967.224L142.651,967.235L142.548,967.244L142.443,967.251L142.339,967.258L142.235,967.263L142.13,967.267L142.026,967.27L141.947,967.271L141.947,967.273L141.962,967.331L141.978,967.389L141.995,967.446L142.013,967.504L142.032,967.56L142.052,967.617L142.072,967.673L142.094,967.728L142.116,967.784L142.139,967.838L142.163,967.893L142.188,967.947L142.214,968.001L142.24,968.054L142.268,968.107L142.296,968.159L142.325,968.211L142.355,968.263L142.386,968.314L142.418,968.365L142.45,968.416L142.484,968.466L142.518,968.516L142.553,968.565L142.588,968.614L142.625,968.662L142.662,968.71L142.7,968.757L142.739,968.805L142.779,968.851L142.819,968.897L142.86,968.943L142.902,968.988L142.944,969.032L142.988,969.077L143.032,969.121L143.077,969.164L143.122,969.207L143.169,969.249L143.215,969.29L143.263,969.332L143.311,969.372L143.36,969.412L143.41,969.452L143.46,969.491L143.511,969.529L143.563,969.567L143.615,969.605L143.667,969.641L143.721,969.677L143.775,969.713L143.83,969.748L143.885,969.782L143.941,969.816L143.997,969.849L144.054,969.881L144.111,969.913L144.169,969.944L144.228,969.975L144.287,970.005L144.346,970.034L144.406,970.062L144.467,970.09L144.527,970.117L144.589,970.143L144.651,970.169L144.713,970.194L144.776,970.219L144.839,970.242L144.902,970.265L144.967,970.287L145.031,970.309L145.095,970.329L145.161,970.349L145.226,970.368L145.292,970.387L145.358,970.404L145.424,970.421L145.491,970.438L145.558,970.453L145.625,970.467L145.693,970.481L145.761,970.494L145.829,970.506L145.897,970.518L145.966,970.528L146.035,970.538L146.104,970.547L146.173,970.555L146.243,970.562L146.313,970.568L146.382,970.574L146.452,970.579L146.522,970.583L146.593,970.586L146.663,970.588L146.734,970.589L146.81,970.59L146.901,970.594L146.991,970.607L147.08,970.629L147.166,970.658L147.249,970.696L147.329,970.74L147.404,970.792L147.473,970.851L147.537,970.916L147.595,970.986L147.646,971.062L147.69,971.142L147.727,971.225L147.755,971.312L147.775,971.401L147.787,971.491L147.791,971.582L147.786,971.673L147.773,971.763L147.752,971.852L147.722,971.938L147.685,972.021L147.64,972.101L147.588,972.176L147.53,972.246L147.465,972.31L147.394,972.367L147.319,972.418L147.239,972.462L147.155,972.499L147.069,972.527L146.98,972.548L146.89,972.56L146.798,972.563L146.709,972.563L146.614,972.561L146.52,972.558L146.426,972.554L146.332,972.549L146.237,972.542L146.143,972.535L146.05,972.526L145.957,972.517L145.864,972.506L145.771,972.494L145.678,972.481L145.586,972.467L145.494,972.451L145.402,972.435L145.312,972.418L145.221,972.399L145.13,972.379L145.039,972.359L144.95,972.337L144.86,972.314L144.771,972.291L144.682,972.266L144.594,972.24L144.506,972.213L144.419,972.185L144.332,972.156L144.246,972.126L144.159,972.095L144.073,972.063L143.988,972.03L143.904,971.996L143.82,971.961L143.736,971.925L143.653,971.888L143.57,971.85L143.488,971.811L143.407,971.771L143.326,971.73L143.246,971.689L143.166,971.646L143.087,971.602L143.009,971.557L142.931,971.511L142.854,971.465L142.777,971.417L142.701,971.369L142.626,971.32L142.552,971.269L142.478,971.218L142.405,971.165L142.332,971.112L142.261,971.058L142.19,971.003L142.12,970.948L142.05,970.891L141.982,970.833L141.914,970.775L141.847,970.715L141.781,970.655L141.716,970.594L141.651,970.531L141.588,970.468L141.526,970.405L141.464,970.34L141.403,970.274L141.343,970.208L141.284,970.14L141.226,970.072L141.169,970.003L141.113,969.933L141.058,969.862L141.004,969.791L140.951,969.718L140.899,969.645L140.848,969.571L140.799,969.496L140.75,969.42L140.702,969.344L140.656,969.267L140.611,969.189L140.566,969.11L140.524,969.03L140.482,968.95L140.441,968.869L140.402,968.787L140.364,968.705L140.327,968.621L140.292,968.538L140.258,968.453L140.225,968.367L140.193,968.281L140.163,968.195L140.134,968.107L140.107,968.019L140.08,967.931L140.056,967.841L140.032,967.751L140.011,967.661L139.99,967.57L139.971,967.478L139.954,967.386L139.938,967.293L139.923,967.2L139.911,967.106L139.905,967.062L139.829,967.046L139.726,967.022L139.623,966.998L139.52,966.972L139.418,966.945L139.316,966.917L139.215,966.888L139.114,966.857L139.013,966.826L138.913,966.793L138.813,966.759L138.713,966.724L138.615,966.688L138.516,966.651L138.418,966.613L138.321,966.574L138.224,966.533L138.128,966.492L138.032,966.449L137.937,966.405L137.843,966.36L137.749,966.314L137.656,966.266L137.563,966.218L137.472,966.168L137.381,966.118L137.291,966.066L137.201,966.013L137.112,965.959L137.025,965.903L136.938,965.847L136.852,965.789L136.767,965.73L136.682,965.67L136.599,965.609L136.517,965.547L136.435,965.483L136.355,965.419L136.276,965.353L136.198,965.285L136.121,965.217L136.045,965.148L135.97,965.077L135.897,965.005L135.824,964.932L135.753,964.857L135.684,964.781L135.615,964.705L135.548,964.627L135.482,964.547L135.418,964.467L135.356,964.385L135.294,964.302L135.235,964.217L135.177,964.132L135.12,964.045L135.066,963.957L135.013,963.868L134.961,963.777L134.912,963.686L134.865,963.594L134.804,963.471L134.747,963.348L134.692,963.226L134.64,963.103L134.591,962.981L134.543,962.858L134.499,962.735L134.457,962.613L134.417,962.49L134.38,962.367L134.354,962.275L134.281,962.259L134.171,962.232L134.061,962.203L133.953,962.172L133.846,962.139L133.739,962.104L133.633,962.067L133.528,962.028L133.424,961.987L133.321,961.945L133.219,961.9L133.118,961.854L133.018,961.806L132.919,961.757L132.821,961.705L132.724,961.652L132.629,961.597L132.534,961.541L132.44,961.483L132.348,961.423L132.256,961.362L132.166,961.299L132.077,961.235L131.989,961.169L131.902,961.102L131.816,961.033L131.731,960.963L131.648,960.891L131.566,960.818L131.485,960.744L131.405,960.669L131.326,960.592L131.248,960.513L131.172,960.434L131.097,960.353L131.023,960.271L130.95,960.188L130.879,960.104L130.809,960.018L130.74,959.932L130.672,959.844L130.605,959.755L130.54,959.665L130.476,959.574L130.413,959.482L130.352,959.389L130.291,959.295L130.232,959.2L130.175,959.104L130.118,959.008L130.063,958.91L130.009,958.811L129.957,958.711L129.905,958.611L129.855,958.51L129.807,958.407L129.759,958.304L129.713,958.201L129.668,958.096L129.625,957.991L129.583,957.884L129.542,957.778L129.503,957.67L129.465,957.562L129.428,957.453L129.393,957.343L129.359,957.233L129.326,957.122L129.295,957.01L129.265,956.898L129.236,956.785L129.209,956.672L129.184,956.558L129.159,956.444L129.136,956.329L129.115,956.213L129.095,956.097L129.076,955.981L129.059,955.864L129.044,955.746L129.029,955.629L129.017,955.51L129.005,955.392L128.995,955.273L128.987,955.153L128.98,955.034L128.975,954.913L128.971,954.793L128.969,954.672L128.968,954.549L128.97,954.4L128.975,954.237L128.984,954.063L128.995,953.879L129.011,953.685L129.03,953.482L129.052,953.271L129.078,953.053L129.108,952.831L129.125,952.715L129.142,952.6L129.16,952.484L129.18,952.367L129.2,952.249L129.222,952.131L129.245,952.012L129.268,951.892L129.293,951.773L129.319,951.653L129.346,951.534L129.375,951.414L129.404,951.295L129.435,951.176L129.467,951.057L129.501,950.939L129.535,950.822L129.572,950.706L129.609,950.59L129.649,950.475L129.69,950.362L129.732,950.249L129.777,950.138L129.823,950.028L129.872,949.919L129.923,949.812L129.976,949.706L130.032,949.601L130.09,949.499L130.152,949.397L130.215,949.302L130.251,949.249L130.286,949.2L130.322,949.153L130.359,949.105L130.398,949.057L130.438,949.011L130.478,948.965L130.521,948.92L130.565,948.875L130.611,948.831L130.657,948.789L130.706,948.746L130.756,948.705L130.808,948.666L130.863,948.626L130.919,948.589L130.977,948.553L131.037,948.519L131.099,948.487L131.163,948.456L131.23,948.428L131.296,948.402L131.366,948.379L131.437,948.358L131.509,948.34L131.583,948.325L131.658,948.314L131.734,948.306L131.81,948.301L131.865,948.299L131.956,948.302ZM144.64,961.208L144.613,961.21L144.586,961.212L144.56,961.215L144.533,961.218L144.507,961.222L144.481,961.227L144.454,961.233L144.429,961.239L144.403,961.246L144.376,961.254L144.351,961.262L144.325,961.271L144.298,961.281L144.272,961.292L144.245,961.304L144.218,961.316L144.191,961.329L144.164,961.343L144.137,961.358L144.108,961.375L144.08,961.391L144.053,961.409L144.024,961.428L143.995,961.447L143.967,961.468L143.938,961.489L143.909,961.512L143.88,961.535L143.851,961.56L143.821,961.585L143.792,961.611L143.762,961.638L143.733,961.666L143.703,961.696L143.673,961.726L143.643,961.757L143.614,961.788L143.584,961.821L143.554,961.854L143.527,961.886L143.466,961.96L143.407,962.034L143.349,962.111L143.291,962.191L143.234,962.274L143.177,962.359L143.122,962.446L143.067,962.536L143.013,962.628L142.96,962.722L142.907,962.817L142.856,962.914L142.806,963.012L142.757,963.112L142.709,963.212L142.663,963.313L142.617,963.415L142.573,963.517L142.53,963.62L142.488,963.722L142.447,963.825L142.407,963.927L142.369,964.029L142.332,964.131L142.297,964.231L142.262,964.331L142.229,964.43L142.197,964.527L142.167,964.624L142.137,964.718L142.109,964.811L142.083,964.902L142.058,964.989L142.011,965.162L141.976,965.296L141.988,965.296L142.069,965.294L142.15,965.291L142.23,965.287L142.31,965.282L142.389,965.276L142.468,965.269L142.546,965.262L142.624,965.253L142.702,965.243L142.78,965.232L142.856,965.221L142.932,965.208L143.007,965.195L143.081,965.18L143.155,965.165L143.229,965.148L143.301,965.131L143.372,965.113L143.444,965.094L143.514,965.074L143.584,965.053L143.652,965.031L143.72,965.008L143.787,964.984L143.853,964.96L143.918,964.934L143.982,964.908L144.046,964.881L144.108,964.853L144.169,964.824L144.229,964.794L144.289,964.764L144.347,964.732L144.404,964.7L144.461,964.667L144.516,964.633L144.57,964.599L144.623,964.563L144.676,964.527L144.726,964.49L144.776,964.452L144.825,964.414L144.873,964.374L144.92,964.334L144.965,964.293L145.01,964.252L145.051,964.211L145.088,964.174L145.121,964.136L145.155,964.097L145.188,964.055L145.221,964.012L145.252,963.966L145.284,963.919L145.314,963.87L145.344,963.819L145.373,963.767L145.4,963.713L145.427,963.657L145.453,963.601L145.477,963.542L145.501,963.483L145.523,963.423L145.544,963.362L145.563,963.3L145.581,963.237L145.598,963.173L145.613,963.109L145.627,963.045L145.639,962.981L145.65,962.916L145.66,962.851L145.667,962.786L145.674,962.722L145.678,962.658L145.682,962.594L145.683,962.531L145.683,962.468L145.682,962.407L145.679,962.346L145.675,962.286L145.669,962.228L145.662,962.17L145.653,962.114L145.643,962.06L145.632,962.007L145.619,961.956L145.606,961.906L145.591,961.859L145.575,961.813L145.559,961.769L145.541,961.728L145.523,961.688L145.504,961.651L145.482,961.611L145.474,961.598L145.464,961.582L145.453,961.566L145.443,961.551L145.432,961.536L145.422,961.522L145.411,961.508L145.4,961.495L145.39,961.482L145.379,961.469L145.368,961.458L145.356,961.446L145.345,961.435L145.334,961.424L145.322,961.413L145.311,961.403L145.299,961.393L145.287,961.384L145.275,961.375L145.263,961.366L145.25,961.357L145.237,961.349L145.224,961.341L145.211,961.334L145.197,961.326L145.182,961.319L145.168,961.312L145.154,961.305L145.138,961.298L145.121,961.292L145.105,961.286L145.088,961.28L145.05,961.268L145.014,961.257L144.979,961.248L144.944,961.239L144.911,961.232L144.877,961.226L144.845,961.22L144.815,961.216L144.784,961.213L144.754,961.21L144.724,961.209L144.696,961.208L144.668,961.208L144.64,961.208ZM137.825,955.544L137.804,955.556L137.783,955.569L137.76,955.584L137.736,955.6L137.711,955.618L137.685,955.637L137.658,955.658L137.631,955.68L137.603,955.703L137.575,955.727L137.546,955.752L137.519,955.776L137.458,955.833L137.4,955.891L137.342,955.952L137.285,956.014L137.23,956.077L137.177,956.141L137.126,956.205L137.078,956.268L137.034,956.329L136.993,956.388L136.957,956.443L136.926,956.493L136.899,956.538L136.879,956.576L136.863,956.609L136.861,956.614L136.858,956.62L136.858,956.622L136.856,956.625L136.785,956.84L136.715,957.059L136.646,957.275L136.581,957.489L136.518,957.699L136.459,957.908L136.403,958.115L136.376,958.215L136.351,958.316L136.326,958.417L136.303,958.517L136.28,958.617L136.258,958.715L136.238,958.813L136.218,958.911L136.2,959.008L136.183,959.105L136.166,959.2L136.151,959.296L136.138,959.391L136.125,959.485L136.114,959.579L136.104,959.672L136.095,959.764L136.087,959.857L136.081,959.949L136.075,960.04L136.072,960.131L136.069,960.221L136.068,960.311L136.068,960.401L136.069,960.426L136.078,960.426L136.163,960.417L136.249,960.407L136.335,960.395L136.422,960.381L136.511,960.366L136.599,960.349L136.688,960.33L136.778,960.309L136.869,960.286L136.961,960.262L137.053,960.235L137.146,960.207L137.24,960.176L137.334,960.144L137.429,960.11L137.525,960.074L137.621,960.035L137.718,959.995L137.816,959.952L137.915,959.908L138.014,959.861L138.113,959.812L138.162,959.787L138.208,959.762L138.254,959.737L138.298,959.711L138.34,959.684L138.382,959.657L138.422,959.63L138.461,959.603L138.498,959.575L138.535,959.547L138.571,959.518L138.605,959.489L138.638,959.459L138.67,959.43L138.702,959.4L138.732,959.369L138.761,959.339L138.79,959.308L138.817,959.276L138.844,959.245L138.869,959.212L138.894,959.18L138.918,959.148L138.941,959.115L138.964,959.081L138.985,959.047L139.006,959.013L139.026,958.979L139.045,958.944L139.063,958.909L139.081,958.874L139.098,958.838L139.114,958.802L139.13,958.765L139.145,958.728L139.159,958.691L139.172,958.654L139.184,958.616L139.196,958.578L139.208,958.539L139.218,958.5L139.228,958.461L139.237,958.421L139.245,958.381L139.253,958.341L139.26,958.301L139.266,958.26L139.271,958.219L139.276,958.178L139.28,958.136L139.283,958.094L139.286,958.052L139.287,958.01L139.289,957.968L139.289,957.925L139.289,957.882L139.288,957.839L139.286,957.796L139.283,957.753L139.28,957.71L139.276,957.666L139.271,957.623L139.266,957.58L139.26,957.536L139.253,957.493L139.245,957.449L139.237,957.406L139.228,957.362L139.218,957.319L139.208,957.276L139.197,957.232L139.185,957.189L139.173,957.146L139.16,957.103L139.146,957.061L139.132,957.019L139.117,956.977L139.101,956.934L139.085,956.893L139.068,956.852L139.05,956.81L139.032,956.77L139.013,956.729L138.994,956.689L138.974,956.65L138.953,956.61L138.932,956.571L138.91,956.533L138.888,956.495L138.865,956.457L138.842,956.42L138.818,956.383L138.794,956.347L138.769,956.311L138.744,956.276L138.718,956.242L138.692,956.207L138.666,956.174L138.638,956.141L138.611,956.109L138.583,956.077L138.555,956.046L138.526,956.016L138.497,955.986L138.468,955.957L138.438,955.929L138.408,955.901L138.378,955.874L138.347,955.848L138.316,955.822L138.285,955.797L138.253,955.773L138.221,955.75L138.189,955.727L138.157,955.705L138.125,955.684L138.092,955.663L138.059,955.644L138.026,955.625L137.992,955.606L137.958,955.589L137.925,955.572L137.89,955.556L137.856,955.541L137.841,955.535L137.825,955.544Z" style="fill:rgb(25,194,169);"/>
            </g>
            <g transform="matrix(1,0,0,1,158.481,-132.13)">
                <clipPath id="_clip1">
                    <rect x="347.052" y="1684.91" width="50.476" height="42.571"/>
                </clipPath>
                <g clip-path="url(#_clip1)">
                    <g id="Menu--wide-" serif:id="Menu (wide)">
                    </g>
                    <g id="Menu--wide-1" serif:id="Menu (wide)">
                    </g>
                    <g id="Menu--wide-2" serif:id="Menu (wide)">
                    </g>
                    <g id="Menu--wide-3" serif:id="Menu (wide)">
                    </g>
                    <g id="Menu--wide-4" serif:id="Menu (wide)">
                    </g>
                    <g id="Menu--wide-5" serif:id="Menu (wide)">
                    </g>
                    <g id="Menu--wide-6" serif:id="Menu (wide)">
                    </g>
                </g>
            </g>
            <g transform="matrix(1,0,0,1,21.4959,-28.2154)">
                <clipPath id="_clip2">
                    <rect x="347.052" y="1684.91" width="50.476" height="42.571"/>
                </clipPath>
                <g clip-path="url(#_clip2)">
                    <g id="Menu--wide-7" serif:id="Menu (wide)">
                    </g>
                    <g id="Menu--wide-8" serif:id="Menu (wide)">
                    </g>
                    <g id="Menu--wide-9" serif:id="Menu (wide)">
                    </g>
                    <g id="Menu--wide-10" serif:id="Menu (wide)">
                    </g>
                    <g id="Menu--wide-11" serif:id="Menu (wide)">
                    </g>
                    <g id="Menu--wide-12" serif:id="Menu (wide)">
                    </g>
                    <g id="Menu--wide-13" serif:id="Menu (wide)">
                    </g>
                </g>
            </g>
        </g>
    </g>
</svg>
