<?xml version="1.0" encoding="UTF-8" standalone="no"?>
<!DOCTYPE svg PUBLIC "-//W3C//DTD SVG 1.1//EN" "http://www.w3.org/Graphics/SVG/1.1/DTD/svg11.dtd">
<svg width="100%" height="100%" viewBox="0 0 542 318" version="1.1" xmlns="http://www.w3.org/2000/svg" xmlns:xlink="http://www.w3.org/1999/xlink" xml:space="preserve" xmlns:serif="http://www.serif.com/" style="fill-rule:evenodd;clip-rule:evenodd;stroke-linecap:round;stroke-linejoin:round;stroke-miterlimit:1.5;">
    <g transform="matrix(1,0,0,1,-835.136,-1044.61)">
        <rect id="Plan-de-travail1" serif:id="Plan de travail1" x="0" y="0" width="2732" height="2048" style="fill:none;"/>
        <g id="Plan-de-travail11" serif:id="Plan de travail1">
            <g transform="matrix(0.390625,-3.39258e-17,-2.67147e-17,0.416667,330.467,237.66)">
                <g id="Delete">
                </g>
            </g>
            <g transform="matrix(0.583674,-5.06922e-17,-3.99173e-17,0.622585,-860.124,582.023)">
                <g id="Search">
                </g>
            </g>
            <g>
                <g transform="matrix(1,0,0,1,22.6534,29.5479)">
                    <path d="M1350.59,1056.77C1350.59,1046.58 1346.54,1036.81 1339.34,1029.6C1332.13,1022.4 1322.37,1018.35 1312.18,1018.35C1211.24,1018.35 939.941,1018.35 847.29,1018.35C838.931,1018.35 830.914,1021.67 825.003,1027.59C819.093,1033.5 815.772,1041.51 815.772,1049.87C815.772,1108.11 815.772,1232.23 815.772,1293.64C815.772,1303.18 819.56,1312.32 826.301,1319.06C833.043,1325.8 842.187,1329.59 851.722,1329.59C948.145,1329.59 1211.93,1329.59 1311.68,1329.59C1333.17,1329.59 1350.59,1312.17 1350.59,1290.69C1350.59,1230.73 1350.59,1116.43 1350.59,1056.77Z" style="fill:white;stroke:rgb(25,194,169);stroke-width:6.58px;"/>
                </g>
                <g id="Love" transform="matrix(1.99264,4.44373e-31,0,2.00288,-50.6682,676.02)">
                    <path d="M661.5,286.9C661.3,286.9 661.1,286.9 660.9,286.9C657.2,287.1 653.6,289.3 651.4,292.6C649.4,295.7 648.9,299.4 650.1,302.6C651.5,306.4 655,309.8 658.1,312.8C658.8,313.5 659.5,314.2 660.1,314.8C662.3,317 664.5,319.1 666.6,321.1C667.8,322.2 669,323.4 670.2,324.6L671.5,325.9L672.9,324.7C676.9,321.3 680.9,317.5 684.8,313.4C685.2,313 685.6,312.5 686.1,312.1C689,309.1 692.7,305.4 693.5,300.9C694.1,297.2 693.2,293.6 691,291C688.9,288.5 685.8,287.1 682.4,287.1C682.2,287.1 682.1,287.1 681.9,287.1C676.5,287.3 673.3,290 671.4,292.4C669.6,289.9 666.3,286.9 661.5,286.9Z" style="fill:rgb(25,194,169);"/>
                </g>
                <g id="Add" transform="matrix(2.78659,3.77821e-31,0,2.78659,707.093,1161.72)">
                    <path d="M193,43.5L207,43.5L207,29.5L210,29.5L210,43.5L224,43.5L224,46.5L210,46.5L210,60.5L207,60.5L207,46.5L193,46.5L193,43.5Z" style="fill:white;"/>
                </g>
            </g>
            <g transform="matrix(1,0,0,1,158.481,-132.13)">
                <clipPath id="_clip1">
                    <rect x="347.052" y="1684.91" width="50.476" height="42.571"/>
                </clipPath>
                <g clip-path="url(#_clip1)">
                    <g id="Menu--wide-" serif:id="Menu (wide)">
                    </g>
                    <g id="Menu--wide-1" serif:id="Menu (wide)">
                    </g>
                    <g id="Menu--wide-2" serif:id="Menu (wide)">
                    </g>
                    <g id="Menu--wide-3" serif:id="Menu (wide)">
                    </g>
                    <g id="Menu--wide-4" serif:id="Menu (wide)">
                    </g>
                    <g id="Menu--wide-5" serif:id="Menu (wide)">
                    </g>
                    <g id="Menu--wide-6" serif:id="Menu (wide)">
                    </g>
                </g>
            </g>
            <g transform="matrix(1,0,0,1,21.4959,-28.2154)">
                <clipPath id="_clip2">
                    <rect x="347.052" y="1684.91" width="50.476" height="42.571"/>
                </clipPath>
                <g clip-path="url(#_clip2)">
                    <g id="Menu--wide-7" serif:id="Menu (wide)">
                    </g>
                    <g id="Menu--wide-8" serif:id="Menu (wide)">
                    </g>
                    <g id="Menu--wide-9" serif:id="Menu (wide)">
                    </g>
                    <g id="Menu--wide-10" serif:id="Menu (wide)">
                    </g>
                    <g id="Menu--wide-11" serif:id="Menu (wide)">
                    </g>
                    <g id="Menu--wide-12" serif:id="Menu (wide)">
                    </g>
                    <g id="Menu--wide-13" serif:id="Menu (wide)">
                    </g>
                </g>
            </g>
        </g>
    </g>
</svg>
