<?xml version="1.0" encoding="UTF-8" standalone="no"?>
<!DOCTYPE svg PUBLIC "-//W3C//DTD SVG 1.1//EN" "http://www.w3.org/Graphics/SVG/1.1/DTD/svg11.dtd">
<svg width="100%" height="100%" viewBox="0 0 566 1076" version="1.1" xmlns="http://www.w3.org/2000/svg" xmlns:xlink="http://www.w3.org/1999/xlink" xml:space="preserve" xmlns:serif="http://www.serif.com/" style="fill-rule:evenodd;clip-rule:evenodd;stroke-linecap:round;stroke-linejoin:round;stroke-miterlimit:1.5;">
    <g transform="matrix(1,0,0,1,-1526.65,-765.876)">
        <rect id="Plan-de-travail1" serif:id="Plan de travail1" x="0" y="0" width="2732" height="2048" style="fill:none;"/>
        <g id="Plan-de-travail11" serif:id="Plan de travail1">
            <g transform="matrix(0.390625,-3.39258e-17,-2.67147e-17,0.416667,330.467,237.66)">
                <g id="Delete">
                </g>
            </g>
            <g transform="matrix(0.583674,-5.06922e-17,-3.99173e-17,0.622585,-860.124,582.023)">
                <g id="Search">
                </g>
            </g>
            <g transform="matrix(1,0,0,1,158.481,-132.13)">
                <clipPath id="_clip1">
                    <rect x="347.052" y="1684.91" width="50.476" height="42.571"/>
                </clipPath>
                <g clip-path="url(#_clip1)">
                    <g id="Menu--wide-" serif:id="Menu (wide)">
                    </g>
                    <g id="Menu--wide-1" serif:id="Menu (wide)">
                    </g>
                    <g id="Menu--wide-2" serif:id="Menu (wide)">
                    </g>
                    <g id="Menu--wide-3" serif:id="Menu (wide)">
                    </g>
                    <g id="Menu--wide-4" serif:id="Menu (wide)">
                    </g>
                    <g id="Menu--wide-5" serif:id="Menu (wide)">
                    </g>
                    <g id="Menu--wide-6" serif:id="Menu (wide)">
                    </g>
                </g>
            </g>
            <g transform="matrix(1,0,0,1,21.4959,-28.2154)">
                <clipPath id="_clip2">
                    <rect x="347.052" y="1684.91" width="50.476" height="42.571"/>
                </clipPath>
                <g clip-path="url(#_clip2)">
                    <g id="Menu--wide-7" serif:id="Menu (wide)">
                    </g>
                    <g id="Menu--wide-8" serif:id="Menu (wide)">
                    </g>
                    <g id="Menu--wide-9" serif:id="Menu (wide)">
                    </g>
                    <g id="Menu--wide-10" serif:id="Menu (wide)">
                    </g>
                    <g id="Menu--wide-11" serif:id="Menu (wide)">
                    </g>
                    <g id="Menu--wide-12" serif:id="Menu (wide)">
                    </g>
                    <g id="Menu--wide-13" serif:id="Menu (wide)">
                    </g>
                </g>
            </g>
            <g>
                <g>
                    <g transform="matrix(1,0,0,1.18245,0,-94.8408)">
                        <path d="M2087.99,945.503C2087.99,936.593 2083.81,928.048 2076.36,921.747C2068.91,915.447 2058.8,911.907 2048.27,911.907C1944.54,911.907 1666.69,911.907 1566.85,911.907C1557.21,911.907 1547.96,915.147 1541.14,920.913C1534.32,926.68 1530.49,934.501 1530.49,942.656C1530.49,1058.78 1530.49,1470.47 1530.49,1597.46C1530.49,1618.22 1550.39,1635.04 1574.93,1635.04C1682.61,1635.04 1955.76,1635.04 2052.98,1635.04C2062.26,1635.04 2071.17,1631.92 2077.74,1626.37C2084.3,1620.82 2087.99,1613.29 2087.99,1605.43C2087.99,1489.66 2087.99,1068.02 2087.99,945.503Z" style="fill:white;stroke:rgb(22,168,146);stroke-width:6.01px;"/>
                    </g>
                    <path d="M1530.49,1686.4L2087.99,1687.76" style="fill:none;stroke:rgb(22,168,146);stroke-width:6.58px;"/>
                    <g transform="matrix(1,0,0,1,26.8989,13.0366)">
                        <text x="1521.84px" y="1563.66px" style="font-family:'EuphemiaUCAS-Bold', 'Euphemia UCAS', sans-serif;font-weight:700;font-size:31.8px;fill:rgb(25,194,169);stroke:rgb(25,194,169);stroke-width:1px;stroke-linecap:butt;stroke-miterlimit:1.41421;">Poids</text>
                    </g>
                    <g transform="matrix(1,0,0,1,20.3921,15.5368)">
                        <text x="1525.89px" y="1484.62px" style="font-family:'EuphemiaUCAS-Bold', 'Euphemia UCAS', sans-serif;font-weight:700;font-size:31.816px;fill:rgb(25,194,169);stroke:rgb(25,194,169);stroke-width:1px;stroke-linecap:butt;stroke-miterlimit:1.41421;">Taille</text>
                    </g>
                    <path d="M1530.49,1446.66L2087.99,1448.58L2087.93,1527.55L1529.94,1527.62L1531.42,1607.34L2086.64,1607.98" style="fill:none;stroke:rgb(22,168,146);stroke-width:6.58px;"/>
                    <path d="M1530.49,1205.04L2087.99,1209.28" style="fill:none;stroke:rgb(22,168,146);stroke-width:6.58px;"/>
                    <g transform="matrix(1,0,0,1,-28.279,-8.07972)">
                        <circle cx="1749.32" cy="912.581" r="135.335" style="fill:white;stroke:rgb(22,168,146);stroke-width:6.58px;"/>
                    </g>
                    <g id="Person" transform="matrix(5.43038,0,0,5.43038,-1075.95,-209.737)">
                        <path d="M515,180C501.2,180 490,191.2 490,205C490,218.8 501.2,230 515,230C528.8,230 540,218.8 540,205C540,191.2 528.8,180 515,180ZM530.269,222.199C535.012,217.985 538,211.841 538,205C538,192.3 527.7,182 515,182C502.3,182 492,192.3 492,205C492,211.841 494.988,217.985 499.731,222.199C502.446,222.115 506.159,222.8 509.516,219.025C510.498,217.921 510.292,214.903 510,214C508.819,213.419 508.056,211.685 508,208C506.902,208.017 506.198,207.629 506,207C505.29,204.738 504.383,202.338 506,200C503.819,191.728 509,187 515,187C521,187 526.181,191.728 524,200C525.617,202.338 524.71,204.738 524,207C523.802,207.629 523.098,208.017 522,208C521.944,211.685 521.181,213.419 520,214C519.708,214.903 519.502,217.921 520.484,219.025C523.841,222.8 527.554,222.115 530.269,222.199Z" style="fill:rgb(22,168,146);"/>
                    </g>
                    <path d="M1534.39,1126.64L2089.22,1127" style="fill:none;stroke:rgb(22,168,146);stroke-width:6.58px;"/>
                    <g transform="matrix(1,0,0,1,12.1931,-25.5044)">
                        <text x="1537.01px" y="1198.9px" style="font-family:'EuphemiaUCAS-Bold', 'Euphemia UCAS', sans-serif;font-weight:700;font-size:31.816px;fill:rgb(25,194,169);stroke:rgb(25,194,169);stroke-width:1px;stroke-linecap:butt;stroke-miterlimit:1.41421;">Sexe</text>
                    </g>
                    <g transform="matrix(1,0,0,1,35.7572,57.4688)">
                        <text x="1514.41px" y="1198.9px" style="font-family:'EuphemiaUCAS-Bold', 'Euphemia UCAS', sans-serif;font-weight:700;font-size:31.816px;fill:rgb(25,194,169);stroke:rgb(25,194,169);stroke-width:1px;stroke-linecap:butt;stroke-miterlimit:1.41421;">Prénom</text>
                    </g>
                    <path d="M1532.37,1286.48L2088.38,1288.68" style="fill:none;stroke:rgb(22,168,146);stroke-width:6.58px;"/>
                    <g transform="matrix(1,0,0,1,10.3605,142.024)">
                        <text x="1539.17px" y="1198.9px" style="font-family:'EuphemiaUCAS-Bold', 'Euphemia UCAS', sans-serif;font-weight:700;font-size:31.816px;fill:rgb(25,194,169);stroke:rgb(25,194,169);stroke-width:1px;stroke-linecap:butt;stroke-miterlimit:1.41421;">Nom</text>
                    </g>
                    <path d="M1530.49,1366.7L2085.88,1367.61" style="fill:none;stroke:rgb(22,168,146);stroke-width:6.58px;"/>
                    <g transform="matrix(1,0,0,1,5.91872,217.587)">
                        <text x="1545.22px" y="1198.9px" style="font-family:'EuphemiaUCAS-Bold', 'Euphemia UCAS', sans-serif;font-weight:700;font-size:31.816px;fill:rgb(25,194,169);stroke:rgb(25,194,169);stroke-width:1px;stroke-linecap:butt;stroke-miterlimit:1.41421;">Age</text>
                    </g>
                </g>
                <g transform="matrix(1,0,0,1,62.406,15.8352)">
                    <text x="1479.22px" y="1642.11px" style="font-family:'EuphemiaUCAS-Bold', 'Euphemia UCAS', sans-serif;font-weight:700;font-size:31.8px;fill:rgb(25,194,169);stroke:rgb(25,194,169);stroke-width:1px;stroke-linecap:butt;stroke-miterlimit:1.41421;">Num. AVS</text>
                </g>
            </g>
            <g transform="matrix(1,1.2326e-32,1.2326e-32,1,581.802,-368.549)">
                <path d="M1383.5,1414.6L1413.5,1414.6L1411.5,1416.6L1385.5,1416.6L1385.5,1450.6L1419.5,1450.6L1419.5,1424.6L1421.5,1422.6L1421.5,1452.6L1383.5,1452.6L1383.5,1414.6ZM1421.9,1412L1402.5,1431.5L1404.6,1433.6L1424,1414.1L1425.5,1415.5L1405.7,1435.3L1399.1,1436.9L1400.7,1430.4L1420.5,1410.6L1421.9,1412ZM1429.3,1410.3L1425.8,1406.8C1425.4,1406.4 1424.8,1406.4 1424.4,1406.8L1422.1,1409.1L1427,1414L1429.3,1411.7C1429.6,1411.3 1429.6,1410.7 1429.3,1410.3Z"/>
            </g>
            <g transform="matrix(0.474064,0,0,1,1627.57,858.852)">
                <path d="M845.298,204.443C845.298,184.457 811.12,168.255 768.961,168.255C757.963,168.255 746.658,168.255 735.703,168.255C716.032,168.255 697.166,171.959 683.256,178.553C669.346,185.147 661.532,194.091 661.532,203.416C661.532,203.758 661.532,204.101 661.532,204.443C661.532,214.177 669.689,223.512 684.208,230.395C698.727,237.278 718.419,241.145 738.951,241.145C748.522,241.145 758.307,241.145 767.878,241.145C810.636,241.145 845.298,224.713 845.298,204.443C845.298,204.443 845.298,204.443 845.298,204.443Z" style="fill:none;stroke:rgb(25,194,169);stroke-width:4.27px;"/>
            </g>
        </g>
    </g>
</svg>
