<?xml version="1.0" encoding="UTF-8" standalone="no"?>
<!DOCTYPE svg PUBLIC "-//W3C//DTD SVG 1.1//EN" "http://www.w3.org/Graphics/SVG/1.1/DTD/svg11.dtd">
<svg width="100%" height="100%" viewBox="0 0 51 45" version="1.1" xmlns="http://www.w3.org/2000/svg" xmlns:xlink="http://www.w3.org/1999/xlink" xml:space="preserve" xmlns:serif="http://www.serif.com/" style="fill-rule:evenodd;clip-rule:evenodd;stroke-linejoin:round;stroke-miterlimit:1.41421;">
    <g transform="matrix(1,0,0,1,-368.548,-1655.99)">
        <rect id="Plan-de-travail1" serif:id="Plan de travail1" x="0" y="0" width="2732" height="2048" style="fill:none;"/>
        <g id="Plan-de-travail11" serif:id="Plan de travail1">
            <g transform="matrix(0.390625,-3.39258e-17,-2.67147e-17,0.416667,330.467,237.66)">
                <g id="Delete">
                </g>
            </g>
            <g transform="matrix(0.583674,-5.06922e-17,-3.99173e-17,0.622585,-860.124,582.023)">
                <g id="Search">
                </g>
            </g>
            <g>
                <g transform="matrix(1,0,0,1,158.481,-132.13)">
                    <clipPath id="_clip1">
                        <rect x="347.052" y="1684.91" width="50.476" height="42.571"/>
                    </clipPath>
                    <g clip-path="url(#_clip1)">
                        <g id="Menu--wide-" serif:id="Menu (wide)">
                        </g>
                        <g id="Menu--wide-1" serif:id="Menu (wide)">
                        </g>
                        <g id="Menu--wide-2" serif:id="Menu (wide)">
                        </g>
                        <g id="Menu--wide-3" serif:id="Menu (wide)">
                        </g>
                        <g id="Menu--wide-4" serif:id="Menu (wide)">
                        </g>
                        <g id="Menu--wide-5" serif:id="Menu (wide)">
                        </g>
                        <g id="Menu--wide-6" serif:id="Menu (wide)">
                        </g>
                    </g>
                </g>
            </g>
            <g transform="matrix(1,0,0,1,21.4959,-28.2154)">
                <clipPath id="_clip2">
                    <rect x="347.052" y="1684.91" width="50.476" height="42.571"/>
                </clipPath>
                <g clip-path="url(#_clip2)">
                    <g id="Menu--wide-7" serif:id="Menu (wide)" transform="matrix(0.00372316,-0.999993,0.999993,0.00372316,-662.899,3445.5)">
                        <g transform="matrix(1,0,0,1,151.3,-321)">
                            <rect x="1569.7" y="1351" width="44" height="3" style="fill:rgb(22,168,146);"/>
                        </g>
                        <g transform="matrix(1,0,0,1,151.3,-320)">
                            <rect x="1569.7" y="1340" width="44" height="3" style="fill:rgb(22,168,146);"/>
                        </g>
                        <g transform="matrix(1,0,0,1,151.3,-319)">
                            <rect x="1569.7" y="1329" width="44" height="3" style="fill:rgb(22,168,146);"/>
                        </g>
                    </g>
                    <g id="Menu--wide-8" serif:id="Menu (wide)" transform="matrix(0.00372316,-0.999993,1.43783,0.00535332,-1105.12,3443.86)">
                        <g transform="matrix(1,0,0,1,151.3,-321)">
                            <rect x="1569.7" y="1351" width="44" height="3" style="fill:rgb(22,168,146);"/>
                        </g>
                        <g transform="matrix(1,0,0,1,151.3,-320)">
                            <rect x="1569.7" y="1340" width="44" height="3" style="fill:rgb(22,168,146);"/>
                        </g>
                        <g transform="matrix(1,0,0,1,151.3,-319)">
                            <rect x="1569.7" y="1329" width="44" height="3" style="fill:rgb(22,168,146);"/>
                        </g>
                    </g>
                    <g id="Menu--wide-9" serif:id="Menu (wide)" transform="matrix(0.00372316,-0.999993,0.282773,0.00105282,61.4932,3448.2)">
                        <g transform="matrix(1,0,0,1,151.3,-321)">
                            <rect x="1569.7" y="1351" width="44" height="3" style="fill:rgb(22,168,146);"/>
                        </g>
                        <g transform="matrix(1,0,0,1,151.3,-320)">
                            <rect x="1569.7" y="1340" width="44" height="3" style="fill:rgb(22,168,146);"/>
                        </g>
                        <g transform="matrix(1,0,0,1,151.3,-319)">
                            <rect x="1569.7" y="1329" width="44" height="3" style="fill:rgb(22,168,146);"/>
                        </g>
                    </g>
                    <g id="Menu--wide-10" serif:id="Menu (wide)" transform="matrix(0.00372316,-0.999993,0.282716,0.00105261,85.4428,3448.43)">
                        <g transform="matrix(1,0,0,1,151.3,-321)">
                            <rect x="1569.7" y="1351" width="44" height="3" style="fill:rgb(22,168,146);"/>
                        </g>
                        <g transform="matrix(1,0,0,1,151.3,-320)">
                            <rect x="1569.7" y="1340" width="44" height="3" style="fill:rgb(22,168,146);"/>
                        </g>
                        <g transform="matrix(1,0,0,1,151.3,-319)">
                            <rect x="1569.7" y="1329" width="44" height="3" style="fill:rgb(22,168,146);"/>
                        </g>
                    </g>
                    <g id="Menu--wide-11" serif:id="Menu (wide)" transform="matrix(0.00372316,-0.999993,0.267251,0.000995024,111.018,3448.61)">
                        <g transform="matrix(1,0,0,1,151.3,-321)">
                            <rect x="1569.7" y="1351" width="44" height="3" style="fill:rgb(22,168,146);"/>
                        </g>
                        <g transform="matrix(1,0,0,1,151.3,-320)">
                            <rect x="1569.7" y="1340" width="44" height="3" style="fill:rgb(22,168,146);"/>
                        </g>
                        <g transform="matrix(1,0,0,1,151.3,-319)">
                            <rect x="1569.7" y="1329" width="44" height="3" style="fill:rgb(22,168,146);"/>
                        </g>
                    </g>
                    <g id="Menu--wide-12" serif:id="Menu (wide)" transform="matrix(0.00372316,-0.999993,0.455467,0.00169579,-119.376,3447.48)">
                        <g transform="matrix(1,0,0,1,151.3,-321)">
                            <rect x="1569.7" y="1351" width="44" height="3" style="fill:rgb(22,168,146);"/>
                        </g>
                        <g transform="matrix(1,0,0,1,151.3,-320)">
                            <rect x="1569.7" y="1340" width="44" height="3" style="fill:rgb(22,168,146);"/>
                        </g>
                        <g transform="matrix(1,0,0,1,151.3,-319)">
                            <rect x="1569.7" y="1329" width="44" height="3" style="fill:rgb(22,168,146);"/>
                        </g>
                    </g>
                    <g id="Menu--wide-13" serif:id="Menu (wide)" transform="matrix(0.00372316,-0.999993,0.552576,0.00205734,-179.854,3447.18)">
                        <g transform="matrix(1,0,0,1,151.3,-321)">
                            <rect x="1569.7" y="1351" width="44" height="3" style="fill:rgb(22,168,146);"/>
                        </g>
                        <g transform="matrix(1,0,0,1,151.3,-320)">
                            <rect x="1569.7" y="1340" width="44" height="3" style="fill:rgb(22,168,146);"/>
                        </g>
                        <g transform="matrix(1,0,0,1,151.3,-319)">
                            <rect x="1569.7" y="1329" width="44" height="3" style="fill:rgb(22,168,146);"/>
                        </g>
                    </g>
                </g>
            </g>
        </g>
    </g>
</svg>
