<?xml version="1.0" encoding="UTF-8" standalone="no"?>
<!DOCTYPE svg PUBLIC "-//W3C//DTD SVG 1.1//EN" "http://www.w3.org/Graphics/SVG/1.1/DTD/svg11.dtd">
<svg width="100%" height="100%" viewBox="0 0 49 48" version="1.1" xmlns="http://www.w3.org/2000/svg" xmlns:xlink="http://www.w3.org/1999/xlink" xml:space="preserve" xmlns:serif="http://www.serif.com/" style="fill-rule:evenodd;clip-rule:evenodd;stroke-linejoin:round;stroke-miterlimit:1.41421;">
    <g transform="matrix(1,0,0,1,-105.093,-1231.09)">
        <rect id="Plan-de-travail1" serif:id="Plan de travail1" x="0" y="0" width="2732" height="2048" style="fill:none;"/>
        <g id="Plan-de-travail11" serif:id="Plan de travail1">
            <g transform="matrix(0.390625,-3.39258e-17,-2.67147e-17,0.416667,330.467,237.66)">
                <g id="Delete">
                </g>
            </g>
            <g transform="matrix(0.583674,-5.06922e-17,-3.99173e-17,0.622585,-860.124,582.023)">
                <g id="Search">
                </g>
            </g>
            <g>
                <g transform="matrix(0.644401,0,0,0.644401,55.2539,1123)">
                    <path d="M115.162,180.001C116.382,180.012 117.599,180.104 118.805,180.288C121.039,180.63 123.225,181.278 125.284,182.21C127.756,183.328 130.041,184.852 132.027,186.701C134.081,188.614 135.813,190.871 137.124,193.354C138.244,195.477 139.055,197.762 139.522,200.117C140.058,202.818 140.144,205.609 139.779,208.338C139.438,210.885 138.701,213.376 137.599,215.698C136.329,218.373 134.58,220.816 132.461,222.885C130.231,225.062 127.597,226.819 124.727,228.034C121.707,229.312 118.441,229.979 115.162,229.999C111.876,230.02 108.596,229.395 105.554,228.151C102.668,226.971 100.012,225.245 97.755,223.093C95.613,221.051 93.835,218.63 92.533,215.971C91.405,213.666 90.637,211.189 90.265,208.65C89.873,205.976 89.915,203.237 90.391,200.577C90.805,198.259 91.552,196.002 92.6,193.893C93.851,191.377 95.529,189.078 97.539,187.115C99.551,185.151 101.892,183.527 104.44,182.337C106.484,181.381 108.659,180.707 110.885,180.338C112.086,180.138 113.299,180.032 114.516,180.005C114.731,180.001 114.946,180 115.162,180.001ZM114.856,182.8C113.819,182.81 112.783,182.885 111.756,183.035C109.726,183.333 107.739,183.915 105.87,184.761C103.593,185.791 101.496,187.209 99.687,188.933C97.881,190.655 96.367,192.679 95.229,194.9C94.298,196.716 93.621,198.66 93.224,200.662C92.739,203.108 92.67,205.636 93.016,208.106C93.332,210.362 93.999,212.566 94.989,214.618C96.151,217.028 97.751,219.221 99.687,221.067C101.691,222.978 104.05,224.511 106.614,225.559C109.314,226.664 112.227,227.218 115.144,227.2C118.055,227.181 120.954,226.59 123.636,225.456C126.185,224.377 128.524,222.815 130.505,220.882C132.419,219.012 133.994,216.8 135.126,214.375C136.092,212.308 136.733,210.092 137.021,207.829C137.336,205.356 137.236,202.83 136.721,200.391C136.29,198.353 135.568,196.379 134.584,194.543C133.407,192.344 131.856,190.348 130.021,188.66C128.214,186.998 126.133,185.636 123.884,184.651C122.001,183.827 120.004,183.269 117.967,182.997C116.936,182.859 115.897,182.797 114.856,182.8Z" style="fill:rgb(25,194,169);fill-rule:nonzero;stroke:rgb(25,194,169);stroke-width:10.21px;"/>
                </g>
                <rect x="108.382" y="1251.37" width="2.371" height="4.659" style="fill:rgb(25,194,169);stroke:rgb(25,194,169);stroke-width:6.58px;stroke-linecap:round;stroke-miterlimit:1.5;"/>
                <g transform="matrix(1,0,0,1,39.3177,1.06264)">
                    <rect x="108.382" y="1251.37" width="2.371" height="4.659" style="fill:rgb(25,194,169);stroke:rgb(25,194,169);stroke-width:6.58px;stroke-linecap:round;stroke-miterlimit:1.5;"/>
                </g>
                <g transform="matrix(-0.0117191,1.33115,-0.999961,-0.00880342,1384.41,1101.16)">
                    <rect x="108.382" y="1251.37" width="2.371" height="4.659" style="fill:rgb(25,194,169);stroke:rgb(25,194,169);stroke-width:5.59px;stroke-linecap:round;stroke-miterlimit:1.5;"/>
                </g>
                <g transform="matrix(-0.0114229,1.2975,-0.999961,-0.00880342,1384.5,1142.95)">
                    <rect x="108.382" y="1251.37" width="2.371" height="4.659" style="fill:rgb(25,194,169);stroke:rgb(25,194,169);stroke-width:5.68px;stroke-linecap:round;stroke-miterlimit:1.5;"/>
                </g>
                <g transform="matrix(-0.667054,0.74501,-0.74501,-0.667054,1149.51,1996.37)">
                    <rect x="108.382" y="1251.37" width="2.371" height="4.659" style="fill:rgb(25,194,169);stroke:rgb(25,194,169);stroke-width:6.58px;stroke-linecap:round;stroke-miterlimit:1.5;"/>
                </g>
                <g transform="matrix(-0.667054,0.74501,-0.74501,-0.667054,1122.82,2022.48)">
                    <rect x="108.382" y="1251.37" width="2.371" height="4.659" style="fill:rgb(25,194,169);stroke:rgb(25,194,169);stroke-width:6.58px;stroke-linecap:round;stroke-miterlimit:1.5;"/>
                </g>
                <g transform="matrix(0.71841,0.69562,-0.69562,0.71841,909.76,264.714)">
                    <rect x="108.382" y="1251.37" width="2.371" height="4.659" style="fill:rgb(25,194,169);stroke:rgb(25,194,169);stroke-width:6.58px;stroke-linecap:round;stroke-miterlimit:1.5;"/>
                </g>
                <g transform="matrix(0.71841,0.69562,-0.69562,0.71841,936.108,291.432)">
                    <rect x="108.382" y="1251.37" width="2.371" height="4.659" style="fill:rgb(25,194,169);stroke:rgb(25,194,169);stroke-width:6.58px;stroke-linecap:round;stroke-miterlimit:1.5;"/>
                </g>
            </g>
            <g transform="matrix(1,0,0,1,158.481,-132.13)">
                <clipPath id="_clip1">
                    <rect x="347.052" y="1684.91" width="50.476" height="42.571"/>
                </clipPath>
                <g clip-path="url(#_clip1)">
                    <g id="Menu--wide-" serif:id="Menu (wide)">
                    </g>
                    <g id="Menu--wide-1" serif:id="Menu (wide)">
                    </g>
                    <g id="Menu--wide-2" serif:id="Menu (wide)">
                    </g>
                    <g id="Menu--wide-3" serif:id="Menu (wide)">
                    </g>
                    <g id="Menu--wide-4" serif:id="Menu (wide)">
                    </g>
                    <g id="Menu--wide-5" serif:id="Menu (wide)">
                    </g>
                    <g id="Menu--wide-6" serif:id="Menu (wide)">
                    </g>
                </g>
            </g>
            <g transform="matrix(1,0,0,1,21.4959,-28.2154)">
                <clipPath id="_clip2">
                    <rect x="347.052" y="1684.91" width="50.476" height="42.571"/>
                </clipPath>
                <g clip-path="url(#_clip2)">
                    <g id="Menu--wide-7" serif:id="Menu (wide)">
                    </g>
                    <g id="Menu--wide-8" serif:id="Menu (wide)">
                    </g>
                    <g id="Menu--wide-9" serif:id="Menu (wide)">
                    </g>
                    <g id="Menu--wide-10" serif:id="Menu (wide)">
                    </g>
                    <g id="Menu--wide-11" serif:id="Menu (wide)">
                    </g>
                    <g id="Menu--wide-12" serif:id="Menu (wide)">
                    </g>
                    <g id="Menu--wide-13" serif:id="Menu (wide)">
                    </g>
                </g>
            </g>
        </g>
    </g>
</svg>
