<?xml version="1.0" encoding="UTF-8" standalone="no"?>
<!DOCTYPE svg PUBLIC "-//W3C//DTD SVG 1.1//EN" "http://www.w3.org/Graphics/SVG/1.1/DTD/svg11.dtd">
<svg width="100%" height="100%" viewBox="0 0 18 45" version="1.1" xmlns="http://www.w3.org/2000/svg" xmlns:xlink="http://www.w3.org/1999/xlink" xml:space="preserve" xmlns:serif="http://www.serif.com/" style="fill-rule:evenodd;clip-rule:evenodd;stroke-linejoin:round;stroke-miterlimit:1.41421;">
    <g transform="matrix(1,0,0,1,-119.029,-1130.56)">
        <rect id="Plan-de-travail1" serif:id="Plan de travail1" x="0" y="0" width="2732" height="2048" style="fill:none;"/>
        <g id="Plan-de-travail11" serif:id="Plan de travail1">
            <g transform="matrix(0.390625,-3.39258e-17,-2.67147e-17,0.416667,330.467,237.66)">
                <g id="Delete">
                </g>
            </g>
            <g transform="matrix(0.583674,-5.06922e-17,-3.99173e-17,0.622585,-860.124,582.023)">
                <g id="Search">
                </g>
            </g>
            <g>
                <path d="M136.516,1175.23L119.029,1175.23C119.029,1175.23 121.64,1155.6 122.827,1146.68C123.155,1144.21 125.264,1142.36 127.758,1142.36C127.78,1142.36 127.802,1142.36 127.824,1142.36C130.297,1142.36 132.388,1144.19 132.714,1146.64C133.898,1155.55 136.516,1175.23 136.516,1175.23Z" style="fill:rgb(25,194,169);"/>
                <g transform="matrix(1,0,0,1,-2.24497,-1.95214)">
                    <circle cx="129.926" cy="1137.24" r="4.734" style="fill:rgb(25,194,169);"/>
                </g>
            </g>
            <g transform="matrix(1,0,0,1,158.481,-132.13)">
                <clipPath id="_clip1">
                    <rect x="347.052" y="1684.91" width="50.476" height="42.571"/>
                </clipPath>
                <g clip-path="url(#_clip1)">
                    <g id="Menu--wide-" serif:id="Menu (wide)">
                    </g>
                    <g id="Menu--wide-1" serif:id="Menu (wide)">
                    </g>
                    <g id="Menu--wide-2" serif:id="Menu (wide)">
                    </g>
                    <g id="Menu--wide-3" serif:id="Menu (wide)">
                    </g>
                    <g id="Menu--wide-4" serif:id="Menu (wide)">
                    </g>
                    <g id="Menu--wide-5" serif:id="Menu (wide)">
                    </g>
                    <g id="Menu--wide-6" serif:id="Menu (wide)">
                    </g>
                </g>
            </g>
            <g transform="matrix(1,0,0,1,21.4959,-28.2154)">
                <clipPath id="_clip2">
                    <rect x="347.052" y="1684.91" width="50.476" height="42.571"/>
                </clipPath>
                <g clip-path="url(#_clip2)">
                    <g id="Menu--wide-7" serif:id="Menu (wide)">
                    </g>
                    <g id="Menu--wide-8" serif:id="Menu (wide)">
                    </g>
                    <g id="Menu--wide-9" serif:id="Menu (wide)">
                    </g>
                    <g id="Menu--wide-10" serif:id="Menu (wide)">
                    </g>
                    <g id="Menu--wide-11" serif:id="Menu (wide)">
                    </g>
                    <g id="Menu--wide-12" serif:id="Menu (wide)">
                    </g>
                    <g id="Menu--wide-13" serif:id="Menu (wide)">
                    </g>
                </g>
            </g>
        </g>
    </g>
</svg>
